<svg width="16" height="19" viewBox="0 0 16 19" fill="none" xmlns="http://www.w3.org/2000/svg">
<path d="M11.5714 4.75C11.5714 6.85781 9.93695 8.5 8 8.5C6.06306 8.5 4.42857 6.85781 4.42857 4.75C4.42857 2.64219 6.06306 1 8 1C9.93695 1 11.5714 2.64219 11.5714 4.75ZM8 12.2812C9.00187 12.2812 9.95592 12.0665 10.8212 11.6875H11.2C13.2619 11.6875 15 13.4373 15 15.675V17.2188C15 17.6863 14.6441 18 14.2857 18H1.71429C1.35591 18 1 17.6863 1 17.2188V15.675C1 13.4373 2.73806 11.6875 4.8 11.6875H5.17951C6.04594 12.066 6.99687 12.2812 8 12.2812Z" fill="white" stroke="black" stroke-width="2"/>
</svg>
