<svg width="124" height="58" viewBox="0 0 124 58" fill="none" xmlns="http://www.w3.org/2000/svg">
<path d="M35.248 41.812C33.916 41.812 32.954 41.22 32.362 40.036C30.5367 40.3813 29.032 40.628 27.848 40.776C26.664 40.924 25.8007 40.998 25.258 40.998C24.1727 40.998 23.5067 40.776 23.26 40.332C23.0133 39.9373 22.89 39.148 22.89 37.964C22.89 37.7173 23.0133 37.594 23.26 37.594L27.626 37.964H31.844V37.372C31.844 32.2907 37.8627 21.5853 49.9 5.256C40.5267 6.04533 34.952 7.82133 33.176 10.584L32.88 11.62C32.584 12.656 32.2387 13.174 31.844 13.174C31.696 13.174 31.622 13.0753 31.622 12.878C31.622 7.106 38.1587 3.97333 51.232 3.48C51.8733 1.95066 52.6873 1.186 53.674 1.186C54.3153 1.186 55.0553 1.334 55.894 1.63C56.7327 1.926 57.152 2.24667 57.152 2.592C57.152 2.78933 56.9793 3.06066 56.634 3.406C57.522 3.45533 57.966 3.52933 57.966 3.628C57.966 3.82533 57.7933 4.09666 57.448 4.442C57.152 4.78733 56.8807 4.96 56.634 4.96H55.302C48.938 12.064 43.7827 18.6993 39.836 24.866C35.9387 30.9833 33.916 35.3247 33.768 37.89C36.3827 37.8407 38.652 37.7173 40.576 37.52C42.5493 37.3227 44.2267 37.0513 45.608 36.706C45.5587 36.706 45.608 36.706 45.756 36.706C45.9533 36.6567 46.1013 36.632 46.2 36.632C46.5453 36.632 46.718 36.7307 46.718 36.928C46.718 37.2733 46.1013 37.5447 44.868 37.742L34.064 39.814C34.4587 40.3567 35.174 40.628 36.21 40.628L39.022 40.11C39.2687 40.11 39.392 40.1593 39.392 40.258C39.244 40.554 38.652 40.8993 37.616 41.294C36.6293 41.6393 35.84 41.812 35.248 41.812ZM67.8514 41.738C65.6314 41.738 64.5214 39.962 64.5214 36.41C64.5214 34.2887 65.3107 30.5147 66.8894 25.088C65.8534 27.1107 64.842 28.936 63.8554 30.564C62.918 32.1427 61.9067 33.6473 60.8214 35.078C58.6014 37.9887 56.702 39.444 55.1234 39.444C54.1367 39.444 53.1254 38.8273 52.0894 37.594C51.1027 36.3607 50.6094 35.2507 50.6094 34.264C50.6094 31.156 52.262 27.4313 55.5674 23.09C58.922 18.65 61.9067 16.43 64.5214 16.43C65.2614 16.43 66.026 16.652 66.8154 17.096C67.7034 17.4907 68.1474 17.9593 68.1474 18.502C68.1474 18.8967 67.9254 19.094 67.4814 19.094L66.0014 18.28C64.324 18.28 61.734 20.7713 58.2314 25.754C54.778 30.6873 53.0514 34.1653 53.0514 36.188C53.0514 36.928 53.224 37.298 53.5694 37.298C54.0627 37.298 54.9507 36.7553 56.2334 35.67C57.516 34.5847 59.2427 32.784 61.4134 30.268C63.6334 27.7027 65.878 24.792 68.1474 21.536C68.7394 20.204 69.3807 18.6747 70.0714 16.948C70.8114 15.172 71.6994 13.0507 72.7354 10.584C72.7847 10.4853 72.9574 10.0413 73.2534 9.252C73.5987 8.46267 73.9687 7.57467 74.3634 6.588C74.8074 5.60133 75.1774 4.738 75.4734 3.998C75.7694 3.258 75.9174 2.86333 75.9174 2.814C75.9174 2.02467 75.424 1.63 74.4374 1.63L71.9214 2.148C71.576 2.148 71.4034 2 71.4034 1.704C71.4034 0.914664 72.5134 0.519997 74.7334 0.519997C78.1374 0.519997 79.8394 1.67933 79.8394 3.998C79.8394 4.738 78.31 8.24066 75.2514 14.506C73.6234 17.7127 72.4394 20.1053 71.6994 21.684C71.0087 23.2133 70.6387 24.0273 70.5894 24.126C67.9747 29.898 66.6674 34.486 66.6674 37.89C66.6674 39.9127 67.1607 40.924 68.1474 40.924L70.3674 40.11L70.5894 40.184C70.5894 40.5293 70.2194 40.8747 69.4794 41.22C68.7887 41.5653 68.246 41.738 67.8514 41.738ZM84.9962 13.174C83.9109 13.174 83.0229 12.878 82.3322 12.286C83.2696 11.6447 84.2562 10.806 85.2922 9.77C86.3776 8.734 87.4876 7.50067 88.6222 6.07C88.7209 6.07 88.7702 6.19333 88.7702 6.44L88.4002 8.586C88.1536 10.1153 87.7096 11.2747 87.0682 12.064C86.4269 12.804 85.7362 13.174 84.9962 13.174ZM77.8922 40.11C76.0176 40.11 75.0802 38.7533 75.0802 36.04C75.0802 31.9453 76.5602 26.5433 79.5202 19.834C79.5202 19.6367 79.6436 19.2667 79.8902 18.724C80.1862 18.1813 80.4082 17.836 80.5562 17.688C80.9016 17.3427 81.3702 17.17 81.9622 17.17C83.6889 17.17 84.6262 17.5153 84.7742 18.206C83.9849 19.4887 83.2202 20.9687 82.4802 22.646C81.7896 24.3233 81.0989 26.1733 80.4082 28.196C79.6682 30.3667 79.1256 32.1673 78.7802 33.598C78.4842 34.9793 78.3362 36.0893 78.3362 36.928C78.3362 38.1613 78.6569 38.778 79.2982 38.778C79.7422 38.778 80.3096 38.5067 81.0002 37.964C81.5429 37.52 81.9129 37.1993 82.1102 37.002C82.3569 36.8047 82.5789 36.632 82.7762 36.484C82.9736 36.484 83.0722 36.5827 83.0722 36.78C83.0722 37.3227 82.3569 38.0133 80.9262 38.852C79.4956 39.6907 78.4842 40.11 77.8922 40.11ZM89.486 40.702C88.2526 40.702 87.1673 40.48 86.23 40.036C85.342 39.592 84.898 39.1727 84.898 38.778C90.5713 37.594 93.408 36.1633 93.408 34.486C93.408 34.1407 92.742 33.376 91.41 32.192C88.8446 29.9227 87.562 27.382 87.562 24.57C87.562 22.5473 88.82 20.5493 91.336 18.576C93.9506 16.504 96.3186 15.468 98.44 15.468C98.7853 15.468 99.476 15.986 100.512 17.022C101.548 18.058 102.066 18.724 102.066 19.02C102.066 19.2667 101.943 19.39 101.696 19.39C101.153 19.2913 100.709 19.2173 100.364 19.168C100.019 19.0693 99.772 19.02 99.624 19.02C97.404 19.02 95.11 19.834 92.742 21.462C90.4233 23.09 89.264 24.7427 89.264 26.42C89.264 26.716 90.4233 28.2207 92.742 30.934C95.0606 33.5487 96.22 35.3493 96.22 36.336C96.22 37.3227 95.5293 38.2847 94.148 39.222C93.408 39.7153 92.6186 40.0853 91.78 40.332C90.9906 40.5787 90.226 40.702 89.486 40.702Z" fill="black"/>
<path d="M2.712 57.096C2.33333 57.096 1.98933 57.024 1.68 56.88C1.37067 56.736 1.10933 56.544 0.896 56.304C0.682667 56.0587 0.530667 55.7893 0.44 55.496L1.016 55.28C1.15467 55.6853 1.37067 55.9947 1.664 56.208C1.95733 56.416 2.30667 56.52 2.712 56.52C2.968 56.52 3.192 56.48 3.384 56.4C3.58133 56.3147 3.73333 56.1973 3.84 56.048C3.94667 55.8987 4 55.7253 4 55.528C4 55.2347 3.92 55.008 3.76 54.848C3.6 54.688 3.37067 54.5653 3.072 54.48L2 54.16C1.57867 54.0373 1.25333 53.832 1.024 53.544C0.8 53.256 0.688 52.928 0.688 52.56C0.688 52.2453 0.765333 51.968 0.92 51.728C1.07467 51.4827 1.28533 51.2907 1.552 51.152C1.824 51.0133 2.13067 50.944 2.472 50.944C2.82933 50.944 3.14933 51.0107 3.432 51.144C3.72 51.272 3.96267 51.4427 4.16 51.656C4.35733 51.8693 4.49867 52.1067 4.584 52.368L4.024 52.592C3.896 52.24 3.696 51.9733 3.424 51.792C3.15733 51.6107 2.84267 51.52 2.48 51.52C2.25067 51.52 2.048 51.56 1.872 51.64C1.70133 51.72 1.568 51.8347 1.472 51.984C1.376 52.1333 1.328 52.3093 1.328 52.512C1.328 52.7573 1.40533 52.9787 1.56 53.176C1.71467 53.368 1.952 53.512 2.272 53.608L3.216 53.888C3.68533 54.0267 4.04 54.2267 4.28 54.488C4.52 54.7493 4.64 55.0773 4.64 55.472C4.64 55.792 4.55733 56.0747 4.392 56.32C4.232 56.56 4.00533 56.7493 3.712 56.888C3.424 57.0267 3.09067 57.096 2.712 57.096ZM7.79588 57V51.04H11.6359V51.64H8.43588V53.712H11.4759V54.312H8.43588V56.4H11.6359V57H7.79588ZM16.7103 57.096C16.289 57.096 15.9183 57.008 15.5983 56.832C15.2783 56.656 15.0303 56.416 14.8543 56.112C14.6783 55.8027 14.5903 55.4507 14.5903 55.056V51.04H15.2303V55.056C15.2303 55.344 15.2916 55.5973 15.4143 55.816C15.5423 56.0293 15.7156 56.1973 15.9343 56.32C16.1583 56.4373 16.417 56.496 16.7103 56.496C17.0036 56.496 17.2596 56.4373 17.4783 56.32C17.7023 56.1973 17.8756 56.0293 17.9983 55.816C18.1263 55.5973 18.1903 55.344 18.1903 55.056V51.04H18.8303V55.056C18.8303 55.4507 18.7423 55.8027 18.5663 56.112C18.3903 56.416 18.1423 56.656 17.8223 56.832C17.5076 57.008 17.137 57.096 16.7103 57.096ZM25.4153 57V51.04H26.0553V53.72H29.2553V51.04H29.8953V57H29.2553V54.32H26.0553V57H25.4153ZM36.0339 57.096C35.6179 57.096 35.2285 57.0213 34.8659 56.872C34.5085 56.7173 34.1939 56.504 33.9219 56.232C33.6499 55.9547 33.4365 55.6293 33.2819 55.256C33.1272 54.8773 33.0499 54.464 33.0499 54.016C33.0499 53.568 33.1272 53.1573 33.2819 52.784C33.4365 52.4053 33.6499 52.08 33.9219 51.808C34.1939 51.5307 34.5085 51.3173 34.8659 51.168C35.2285 51.0187 35.6179 50.944 36.0339 50.944C36.4499 50.944 36.8365 51.0213 37.1939 51.176C37.5565 51.3253 37.8739 51.5387 38.1459 51.816C38.4179 52.088 38.6312 52.4107 38.7859 52.784C38.9405 53.1573 39.0179 53.568 39.0179 54.016C39.0179 54.464 38.9405 54.8773 38.7859 55.256C38.6312 55.6293 38.4179 55.9547 38.1459 56.232C37.8739 56.504 37.5565 56.7173 37.1939 56.872C36.8365 57.0213 36.4499 57.096 36.0339 57.096ZM36.0339 56.496C36.3805 56.496 36.6952 56.432 36.9779 56.304C37.2659 56.176 37.5139 55.9973 37.7219 55.768C37.9299 55.5387 38.0899 55.2747 38.2019 54.976C38.3192 54.6773 38.3779 54.3573 38.3779 54.016C38.3779 53.68 38.3192 53.3627 38.2019 53.064C38.0899 52.7653 37.9299 52.5013 37.7219 52.272C37.5139 52.0427 37.2659 51.864 36.9779 51.736C36.6952 51.608 36.3805 51.544 36.0339 51.544C35.6872 51.544 35.3699 51.608 35.0819 51.736C34.7992 51.864 34.5539 52.0427 34.3459 52.272C34.1379 52.5013 33.9752 52.7653 33.8579 53.064C33.7459 53.3627 33.6899 53.68 33.6899 54.016C33.6899 54.3573 33.7459 54.6773 33.8579 54.976C33.9752 55.2747 34.1379 55.5387 34.3459 55.768C34.5539 55.9973 34.8019 56.176 35.0899 56.304C35.3779 56.432 35.6925 56.496 36.0339 56.496ZM42.9591 57V51.64H41.3111V51.04H45.2311V51.64H43.5991V57H42.9591ZM47.9409 57V51.04H51.7809V51.64H48.5809V53.712H51.6209V54.312H48.5809V56.4H51.7809V57H47.9409ZM54.7593 57V51.04H55.3993V56.4H58.0393V57H54.7593ZM64.2087 57V51.04H66.2567C66.646 51.04 66.9874 51.1173 67.2807 51.272C67.574 51.4213 67.8007 51.6347 67.9607 51.912C68.126 52.184 68.2087 52.5013 68.2087 52.864C68.2087 53.2267 68.126 53.544 67.9607 53.816C67.8007 54.088 67.574 54.3013 67.2807 54.456C66.9927 54.6053 66.6514 54.68 66.2567 54.68H64.8487V57H64.2087ZM64.8487 54.08H66.2887C66.5447 54.08 66.7687 54.032 66.9607 53.936C67.1527 53.8347 67.302 53.6933 67.4087 53.512C67.5154 53.3253 67.5687 53.1067 67.5687 52.856C67.5687 52.6053 67.5154 52.3893 67.4087 52.208C67.302 52.0267 67.1527 51.888 66.9607 51.792C66.7687 51.6907 66.5447 51.64 66.2887 51.64H64.8487V54.08ZM71.2693 57V51.04H73.3173C73.7066 51.04 74.048 51.1173 74.3413 51.272C74.6346 51.4213 74.8613 51.6347 75.0213 51.912C75.1866 52.184 75.2693 52.5013 75.2693 52.864C75.2693 53.2853 75.1573 53.6453 74.9333 53.944C74.7146 54.2427 74.416 54.4533 74.0373 54.576L75.4293 57H74.6773L73.2213 54.432L73.6533 54.68H71.9093V57H71.2693ZM71.9093 54.08H73.3493C73.6053 54.08 73.8293 54.032 74.0213 53.936C74.2133 53.8347 74.3626 53.6933 74.4693 53.512C74.576 53.3253 74.6293 53.1067 74.6293 52.856C74.6293 52.6053 74.576 52.3893 74.4693 52.208C74.3626 52.0267 74.2133 51.888 74.0213 51.792C73.8293 51.6907 73.6053 51.64 73.3493 51.64H71.9093V54.08ZM78.3143 57V51.04H82.1543V51.64H78.9543V53.712H81.9943V54.312H78.9543V56.4H82.1543V57H78.3143ZM85.1327 57V51.04H88.8127V51.64H85.7727V53.712H88.5727V54.312H85.7727V57H85.1327ZM91.7012 57V51.04H95.5412V51.64H92.3412V53.712H95.3812V54.312H92.3412V56.4H95.5412V57H91.7012ZM98.5196 57V51.04H100.568C100.957 51.04 101.298 51.1173 101.592 51.272C101.885 51.4213 102.112 51.6347 102.272 51.912C102.437 52.184 102.52 52.5013 102.52 52.864C102.52 53.2853 102.408 53.6453 102.184 53.944C101.965 54.2427 101.666 54.4533 101.288 54.576L102.68 57H101.928L100.472 54.432L100.904 54.68H99.1596V57H98.5196ZM99.1596 54.08H100.6C100.856 54.08 101.08 54.032 101.272 53.936C101.464 53.8347 101.613 53.6933 101.72 53.512C101.826 53.3253 101.88 53.1067 101.88 52.856C101.88 52.6053 101.826 52.3893 101.72 52.208C101.613 52.0267 101.464 51.888 101.272 51.792C101.08 51.6907 100.856 51.64 100.6 51.64H99.1596V54.08ZM105.565 57V51.04H106.205V57H105.565ZM109.531 57V51.04H111.491C112.083 51.04 112.598 51.1627 113.035 51.408C113.473 51.648 113.811 51.992 114.051 52.44C114.291 52.8827 114.411 53.408 114.411 54.016C114.411 54.6187 114.291 55.144 114.051 55.592C113.811 56.04 113.473 56.3867 113.035 56.632C112.598 56.8773 112.083 57 111.491 57H109.531ZM110.171 56.4H111.491C111.95 56.4 112.347 56.304 112.683 56.112C113.019 55.9147 113.278 55.6373 113.459 55.28C113.646 54.9227 113.739 54.5013 113.739 54.016C113.739 53.5307 113.646 53.112 113.459 52.76C113.273 52.4027 113.011 52.128 112.675 51.936C112.339 51.7387 111.945 51.64 111.491 51.64H110.171V56.4ZM120.197 57.096C119.781 57.096 119.392 57.0213 119.029 56.872C118.672 56.7173 118.357 56.504 118.085 56.232C117.813 55.9547 117.6 55.6293 117.445 55.256C117.29 54.8773 117.213 54.464 117.213 54.016C117.213 53.568 117.29 53.1573 117.445 52.784C117.6 52.4053 117.813 52.08 118.085 51.808C118.357 51.5307 118.672 51.3173 119.029 51.168C119.392 51.0187 119.781 50.944 120.197 50.944C120.613 50.944 121 51.0213 121.357 51.176C121.72 51.3253 122.037 51.5387 122.309 51.816C122.581 52.088 122.794 52.4107 122.949 52.784C123.104 53.1573 123.181 53.568 123.181 54.016C123.181 54.464 123.104 54.8773 122.949 55.256C122.794 55.6293 122.581 55.9547 122.309 56.232C122.037 56.504 121.72 56.7173 121.357 56.872C121 57.0213 120.613 57.096 120.197 57.096ZM120.197 56.496C120.544 56.496 120.858 56.432 121.141 56.304C121.429 56.176 121.677 55.9973 121.885 55.768C122.093 55.5387 122.253 55.2747 122.365 54.976C122.482 54.6773 122.541 54.3573 122.541 54.016C122.541 53.68 122.482 53.3627 122.365 53.064C122.253 52.7653 122.093 52.5013 121.885 52.272C121.677 52.0427 121.429 51.864 121.141 51.736C120.858 51.608 120.544 51.544 120.197 51.544C119.85 51.544 119.533 51.608 119.245 51.736C118.962 51.864 118.717 52.0427 118.509 52.272C118.301 52.5013 118.138 52.7653 118.021 53.064C117.909 53.3627 117.853 53.68 117.853 54.016C117.853 54.3573 117.909 54.6773 118.021 54.976C118.138 55.2747 118.301 55.5387 118.509 55.768C118.717 55.9973 118.965 56.176 119.253 56.304C119.541 56.432 119.856 56.496 120.197 56.496Z" fill="black"/>
</svg>
