<svg width="157" height="59" viewBox="0 0 157 59" fill="none" xmlns="http://www.w3.org/2000/svg">
<path d="M13.764 47.032C12.3827 47.032 11.692 45.922 11.692 43.702C11.692 39.41 13.394 33.9093 16.798 27.2C18.5247 23.8453 20.4733 20.5647 22.644 17.358C24.8147 14.102 27.1827 10.9693 29.748 7.96V7.886C17.8093 8.82333 8.55933 11.6847 1.998 16.47C2.04733 16.4207 1.998 16.4453 1.85 16.544C1.75133 16.5933 1.65267 16.618 1.554 16.618C0.764667 16.618 0.37 16.0013 0.37 14.768C0.37 13.5347 1.38133 12.4247 3.404 11.438C11.84 7.39266 21.016 5.37 30.932 5.37C37.1973 5.37 42.106 6.28266 45.658 8.108C49.21 9.93333 50.986 12.4987 50.986 15.804C50.986 19.1093 48.5933 22.1187 43.808 24.832C39.1213 27.5453 34.2867 28.902 29.304 28.902C26.6893 28.902 23.976 28.4087 21.164 27.422C19.536 29.7407 17.9327 32.9227 16.354 36.968C14.726 41.0133 13.912 43.9733 13.912 45.848L14.06 46.736C14.06 46.9333 13.9613 47.032 13.764 47.032ZM25.456 26.83C26.7387 26.83 28.2187 26.7067 29.896 26.46C31.5733 26.164 33.4973 25.6707 35.668 24.98C37.5427 24.3387 39.3187 23.5987 40.996 22.76C42.6733 21.872 44.1287 20.9593 45.362 20.022C48.0753 17.95 49.432 15.9273 49.432 13.954C49.432 9.90867 43.29 7.886 31.006 7.886C32.2887 8.72466 32.93 9.16866 32.93 9.218C25.382 19.7753 21.608 25.498 21.608 26.386C22.0027 26.4847 22.5207 26.5833 23.162 26.682C23.8527 26.7807 24.6173 26.83 25.456 26.83ZM51.356 42.592C50.3693 42.592 49.4567 42.148 48.618 41.26C47.8287 40.3227 47.434 39.1387 47.434 37.708C47.434 36.2773 48.2973 34.0573 50.024 31.048C51.7507 28.088 53.872 25.424 56.388 23.056C58.8547 20.7373 60.976 19.578 62.752 19.578H63.492C65.3173 19.578 66.8713 19.948 68.154 20.688C69.4367 21.3787 70.078 22.316 70.078 23.5C70.078 24.0427 69.856 24.314 69.412 24.314C69.264 24.314 69.19 24.24 69.19 24.092C68.4007 22.2667 67.192 21.354 65.564 21.354C62.752 21.354 59.5453 23.6727 55.944 28.31C52.3427 32.8487 50.542 36.3513 50.542 38.818C50.542 39.7553 50.7887 40.224 51.282 40.224C53.502 40.224 58.164 35.2167 65.268 25.202C65.2187 25.2513 65.2433 25.2513 65.342 25.202C65.49 25.1033 65.6133 25.054 65.712 25.054C65.9587 25.054 66.4767 25.3007 67.266 25.794C68.0553 26.238 68.45 26.6327 68.45 26.978C68.45 26.978 68.3513 27.1507 68.154 27.496C67.9567 27.792 67.71 28.2607 67.414 28.902C66.6247 30.5793 66.008 32.232 65.564 33.86C65.1693 35.4387 64.972 36.82 64.972 38.004C64.972 40.6187 65.6133 41.926 66.896 41.926L67.636 41.778L67.784 41.852C67.784 42.296 67.1673 42.518 65.934 42.518C64.75 42.518 63.7633 41.9753 62.974 40.89C62.234 39.7553 61.864 38.2507 61.864 36.376C61.864 34.5507 62.1847 32.528 62.826 30.308C62.7767 30.456 62.604 30.7273 62.308 31.122C62.012 31.5167 61.5433 32.2073 60.902 33.194C56.8567 39.4593 53.6747 42.592 51.356 42.592ZM77.0433 42.666C74.6753 42.666 73.4913 40.6927 73.4913 36.746C73.4913 34.23 74.2806 30.086 75.8593 24.314C77.4379 18.4927 79.4359 13.14 81.8533 8.256C84.3199 3.27333 86.4906 0.781997 88.3653 0.781997C89.4506 0.781997 90.5359 1.152 91.6213 1.892C92.7066 2.58267 93.2493 3.34733 93.2493 4.186C93.2493 7.738 88.0199 15.6313 77.5613 27.866C77.1666 29.6913 76.8459 31.3933 76.5993 32.972C76.4019 34.5507 76.3033 36.0307 76.3033 37.412C76.3033 40.1253 76.8953 41.482 78.0793 41.482L79.2633 41.112C79.5099 41.112 79.6333 41.2353 79.6333 41.482C79.6333 42.2713 78.7699 42.666 77.0433 42.666ZM78.0793 25.942C87.0086 14.2993 91.4733 6.97333 91.4733 3.964C91.4733 3.372 91.3006 3.076 90.9553 3.076C89.4753 3.076 87.3293 5.71533 84.5173 10.994C81.7053 16.2727 79.5593 21.2553 78.0793 25.942ZM90.502 42.666C88.134 42.666 86.95 40.6927 86.95 36.746C86.95 34.23 87.7393 30.086 89.318 24.314C90.8967 18.4927 92.8947 13.14 95.312 8.256C97.7787 3.27333 99.9493 0.781997 101.824 0.781997C102.909 0.781997 103.995 1.152 105.08 1.892C106.165 2.58267 106.708 3.34733 106.708 4.186C106.708 7.738 101.479 15.6313 91.02 27.866C90.6253 29.6913 90.3047 31.3933 90.058 32.972C89.8607 34.5507 89.762 36.0307 89.762 37.412C89.762 40.1253 90.354 41.482 91.538 41.482L92.722 41.112C92.9687 41.112 93.092 41.2353 93.092 41.482C93.092 42.2713 92.2287 42.666 90.502 42.666ZM91.538 25.942C100.467 14.2993 104.932 6.97333 104.932 3.964C104.932 3.372 104.759 3.076 104.414 3.076C102.934 3.076 100.788 5.71533 97.976 10.994C95.164 16.2727 93.018 21.2553 91.538 25.942ZM99.2479 42.592C98.2612 42.592 97.3485 42.148 96.5099 41.26C95.7205 40.3227 95.3259 39.1387 95.3259 37.708C95.3259 36.2773 96.1892 34.0573 97.9159 31.048C99.6425 28.088 101.764 25.424 104.28 23.056C106.747 20.7373 108.868 19.578 110.644 19.578H111.384C113.209 19.578 114.763 19.948 116.046 20.688C117.329 21.3787 117.97 22.316 117.97 23.5C117.97 24.0427 117.748 24.314 117.304 24.314C117.156 24.314 117.082 24.24 117.082 24.092C116.293 22.2667 115.084 21.354 113.456 21.354C110.644 21.354 107.437 23.6727 103.836 28.31C100.235 32.8487 98.4339 36.3513 98.4339 38.818C98.4339 39.7553 98.6805 40.224 99.1739 40.224C101.394 40.224 106.056 35.2167 113.16 25.202C113.111 25.2513 113.135 25.2513 113.234 25.202C113.382 25.1033 113.505 25.054 113.604 25.054C113.851 25.054 114.369 25.3007 115.158 25.794C115.947 26.238 116.342 26.6327 116.342 26.978C116.342 26.978 116.243 27.1507 116.046 27.496C115.849 27.792 115.602 28.2607 115.306 28.902C114.517 30.5793 113.9 32.232 113.456 33.86C113.061 35.4387 112.864 36.82 112.864 38.004C112.864 40.6187 113.505 41.926 114.788 41.926L115.528 41.778L115.676 41.852C115.676 42.296 115.059 42.518 113.826 42.518C112.642 42.518 111.655 41.9753 110.866 40.89C110.126 39.7553 109.756 38.2507 109.756 36.376C109.756 34.5507 110.077 32.528 110.718 30.308C110.669 30.456 110.496 30.7273 110.2 31.122C109.904 31.5167 109.435 32.2073 108.794 33.194C104.749 39.4593 101.567 42.592 99.2479 42.592ZM125.1 42.814C120.907 42.814 118.81 40.8653 118.81 36.968C118.81 34.008 120.29 30.382 123.25 26.09C126.26 21.7487 129.146 19.578 131.908 19.578C132.895 19.578 133.906 19.948 134.942 20.688C136.028 21.3787 136.57 22.1433 136.57 22.982C136.57 25.3007 135.781 26.46 134.202 26.46C133.808 26.46 133.561 26.3367 133.462 26.09C134.054 24.6593 134.35 23.5247 134.35 22.686C134.35 21.8967 134.153 21.502 133.758 21.502C133.216 21.502 132.229 22.0693 130.798 23.204C129.565 24.1907 128.406 25.3253 127.32 26.608C126.284 27.8907 125.347 29.2227 124.508 30.604C122.732 33.6133 121.844 36.1293 121.844 38.152C121.844 40.1253 122.609 41.112 124.138 41.112C125.914 41.112 127.863 40.1993 129.984 38.374C130.675 37.7327 131.415 37.0173 132.204 36.228C132.994 35.3893 133.857 34.4767 134.794 33.49C136.62 31.5167 137.582 30.53 137.68 30.53C137.976 30.53 138.124 30.6533 138.124 30.9C138.124 31.0973 138.075 31.2947 137.976 31.492C132.796 39.04 128.504 42.814 125.1 42.814ZM143.762 42.814C139.569 42.814 137.472 40.8653 137.472 36.968C137.472 33.9587 138.952 30.308 141.912 26.016C144.971 21.724 147.882 19.578 150.644 19.578C151.828 19.578 152.864 19.9727 153.752 20.762C154.69 21.502 155.158 22.4147 155.158 23.5C155.158 25.3253 153.999 27.1753 151.68 29.05C149.411 30.8753 147.166 31.788 144.946 31.788C144.502 31.788 144.28 31.6893 144.28 31.492L144.502 31.122C150.176 29.346 153.012 26.4353 153.012 22.39C153.012 21.798 152.815 21.502 152.42 21.502C151.878 21.502 150.891 22.0693 149.46 23.204C148.227 24.1907 147.068 25.3253 145.982 26.608C144.946 27.8907 144.009 29.2227 143.17 30.604C141.394 33.6133 140.506 36.1293 140.506 38.152C140.506 40.1253 141.271 41.112 142.8 41.112C144.576 41.112 146.525 40.1993 148.646 38.374C149.337 37.7327 150.077 37.0173 150.866 36.228C151.656 35.3893 152.519 34.4767 153.456 33.49C155.282 31.5167 156.244 30.53 156.342 30.53C156.638 30.53 156.786 30.6533 156.786 30.9C156.786 31.0973 156.737 31.2947 156.638 31.492C151.458 39.04 147.166 42.814 143.762 42.814Z" fill="black"/>
<path d="M13.712 58.096C13.3333 58.096 12.9893 58.024 12.68 57.88C12.3707 57.736 12.1093 57.544 11.896 57.304C11.6827 57.0587 11.5307 56.7893 11.44 56.496L12.016 56.28C12.1547 56.6853 12.3707 56.9947 12.664 57.208C12.9573 57.416 13.3067 57.52 13.712 57.52C13.968 57.52 14.192 57.48 14.384 57.4C14.5813 57.3147 14.7333 57.1973 14.84 57.048C14.9467 56.8987 15 56.7253 15 56.528C15 56.2347 14.92 56.008 14.76 55.848C14.6 55.688 14.3707 55.5653 14.072 55.48L13 55.16C12.5787 55.0373 12.2533 54.832 12.024 54.544C11.8 54.256 11.688 53.928 11.688 53.56C11.688 53.2453 11.7653 52.968 11.92 52.728C12.0747 52.4827 12.2853 52.2907 12.552 52.152C12.824 52.0133 13.1307 51.944 13.472 51.944C13.8293 51.944 14.1493 52.0107 14.432 52.144C14.72 52.272 14.9627 52.4427 15.16 52.656C15.3573 52.8693 15.4987 53.1067 15.584 53.368L15.024 53.592C14.896 53.24 14.696 52.9733 14.424 52.792C14.1573 52.6107 13.8427 52.52 13.48 52.52C13.2507 52.52 13.048 52.56 12.872 52.64C12.7013 52.72 12.568 52.8347 12.472 52.984C12.376 53.1333 12.328 53.3093 12.328 53.512C12.328 53.7573 12.4053 53.9787 12.56 54.176C12.7147 54.368 12.952 54.512 13.272 54.608L14.216 54.888C14.6853 55.0267 15.04 55.2267 15.28 55.488C15.52 55.7493 15.64 56.0773 15.64 56.472C15.64 56.792 15.5573 57.0747 15.392 57.32C15.232 57.56 15.0053 57.7493 14.712 57.888C14.424 58.0267 14.0907 58.096 13.712 58.096ZM20.8919 58.096C20.4705 58.096 20.0999 58.008 19.7799 57.832C19.4599 57.656 19.2119 57.416 19.0359 57.112C18.8599 56.8027 18.7719 56.4507 18.7719 56.056V52.04H19.4119V56.056C19.4119 56.344 19.4732 56.5973 19.5959 56.816C19.7239 57.0293 19.8972 57.1973 20.1159 57.32C20.3399 57.4373 20.5985 57.496 20.8919 57.496C21.1852 57.496 21.4412 57.4373 21.6599 57.32C21.8839 57.1973 22.0572 57.0293 22.1799 56.816C22.3079 56.5973 22.3719 56.344 22.3719 56.056V52.04H23.0119V56.056C23.0119 56.4507 22.9239 56.8027 22.7479 57.112C22.5719 57.416 22.3239 57.656 22.0039 57.832C21.6892 58.008 21.3185 58.096 20.8919 58.096ZM25.5452 58L27.7212 52.04H28.4092L30.5852 58H29.9132L29.4012 56.544H26.7372L26.2172 58H25.5452ZM26.9452 55.944H29.1772L27.9692 52.52H28.1612L26.9452 55.944ZM36.5793 58V52.04H37.1393L39.3793 55.288H39.0673L41.2993 52.04H41.8593V58H41.2193V52.904L41.4273 52.984L39.2353 56.16H39.2033L37.0193 52.984L37.2193 52.904V58H36.5793ZM45.1868 58V52.04H49.0268V52.64H45.8268V54.712H48.8668V55.312H45.8268V57.4H49.0268V58H45.1868ZM52.0053 58V52.04H52.6453V57.4H55.2853V58H52.0053ZM58.1752 58V52.04H58.8152V54.72H62.0152V52.04H62.6552V58H62.0152V55.32H58.8152V58H58.1752ZM68.7939 58.096C68.3779 58.096 67.9885 58.0213 67.6259 57.872C67.2685 57.7173 66.9539 57.504 66.6819 57.232C66.4099 56.9547 66.1965 56.6293 66.0419 56.256C65.8872 55.8773 65.8099 55.464 65.8099 55.016C65.8099 54.568 65.8872 54.1573 66.0419 53.784C66.1965 53.4053 66.4099 53.08 66.6819 52.808C66.9539 52.5307 67.2685 52.3173 67.6259 52.168C67.9885 52.0187 68.3779 51.944 68.7939 51.944C69.2099 51.944 69.5965 52.0213 69.9539 52.176C70.3165 52.3253 70.6339 52.5387 70.9059 52.816C71.1779 53.088 71.3912 53.4107 71.5459 53.784C71.7005 54.1573 71.7779 54.568 71.7779 55.016C71.7779 55.464 71.7005 55.8773 71.5459 56.256C71.3912 56.6293 71.1779 56.9547 70.9059 57.232C70.6339 57.504 70.3165 57.7173 69.9539 57.872C69.5965 58.0213 69.2099 58.096 68.7939 58.096ZM68.7939 57.496C69.1405 57.496 69.4552 57.432 69.7379 57.304C70.0259 57.176 70.2739 56.9973 70.4819 56.768C70.6899 56.5387 70.8499 56.2747 70.9619 55.976C71.0792 55.6773 71.1379 55.3573 71.1379 55.016C71.1379 54.68 71.0792 54.3627 70.9619 54.064C70.8499 53.7653 70.6899 53.5013 70.4819 53.272C70.2739 53.0427 70.0259 52.864 69.7379 52.736C69.4552 52.608 69.1405 52.544 68.7939 52.544C68.4472 52.544 68.1299 52.608 67.8419 52.736C67.5592 52.864 67.3139 53.0427 67.1059 53.272C66.8979 53.5013 66.7352 53.7653 66.6179 54.064C66.5059 54.3627 66.4499 54.68 66.4499 55.016C66.4499 55.3573 66.5059 55.6773 66.6179 55.976C66.7352 56.2747 66.8979 56.5387 67.1059 56.768C67.3139 56.9973 67.5619 57.176 67.8499 57.304C68.1379 57.432 68.4525 57.496 68.7939 57.496ZM74.9293 58V52.04H76.9773C77.3666 52.04 77.708 52.1173 78.0013 52.272C78.2946 52.4213 78.5213 52.6347 78.6813 52.912C78.8466 53.184 78.9293 53.5013 78.9293 53.864C78.9293 54.2853 78.8173 54.6453 78.5933 54.944C78.3746 55.2427 78.076 55.4533 77.6973 55.576L79.0893 58H78.3373L76.8813 55.432L77.3133 55.68H75.5693V58H74.9293ZM75.5693 55.08H77.0093C77.2653 55.08 77.4893 55.032 77.6813 54.936C77.8733 54.8347 78.0226 54.6933 78.1293 54.512C78.236 54.3253 78.2893 54.1067 78.2893 53.856C78.2893 53.6053 78.236 53.3893 78.1293 53.208C78.0226 53.0267 77.8733 52.888 77.6813 52.792C77.4893 52.6907 77.2653 52.64 77.0093 52.64H75.5693V55.08ZM85.2537 58V52.04H89.0937V52.64H85.8937V54.712H88.9337V55.312H85.8937V57.4H89.0937V58H85.2537ZM91.4561 58L93.3921 54.96L91.5201 52.04H92.2401L93.8641 54.584H93.6481L95.2641 52.04H95.9841L94.1121 54.96L96.0561 58H95.3361L93.6481 55.344H93.8641L92.1601 58H91.4561ZM98.7656 58V52.04H100.814C101.203 52.04 101.544 52.1173 101.838 52.272C102.131 52.4213 102.358 52.6347 102.518 52.912C102.683 53.184 102.766 53.5013 102.766 53.864C102.766 54.2267 102.683 54.544 102.518 54.816C102.358 55.088 102.131 55.3013 101.838 55.456C101.55 55.6053 101.208 55.68 100.814 55.68H99.4056V58H98.7656ZM99.4056 55.08H100.846C101.102 55.08 101.326 55.032 101.518 54.936C101.71 54.8347 101.859 54.6933 101.966 54.512C102.072 54.3253 102.126 54.1067 102.126 53.856C102.126 53.6053 102.072 53.3893 101.966 53.208C101.859 53.0267 101.71 52.888 101.518 52.792C101.326 52.6907 101.102 52.64 100.846 52.64H99.4056V55.08ZM105.826 58V52.04H109.666V52.64H106.466V54.712H109.506V55.312H106.466V57.4H109.666V58H105.826ZM112.645 58V52.04H114.693C115.082 52.04 115.423 52.1173 115.717 52.272C116.01 52.4213 116.237 52.6347 116.397 52.912C116.562 53.184 116.645 53.5013 116.645 53.864C116.645 54.2853 116.533 54.6453 116.309 54.944C116.09 55.2427 115.791 55.4533 115.413 55.576L116.805 58H116.053L114.597 55.432L115.029 55.68H113.285V58H112.645ZM113.285 55.08H114.725C114.981 55.08 115.205 55.032 115.397 54.936C115.589 54.8347 115.738 54.6933 115.845 54.512C115.951 54.3253 116.005 54.1067 116.005 53.856C116.005 53.6053 115.951 53.3893 115.845 53.208C115.738 53.0267 115.589 52.888 115.397 52.792C115.205 52.6907 114.981 52.64 114.725 52.64H113.285V55.08ZM119.69 58V52.04H120.33V58H119.69ZM123.656 58V52.04H127.496V52.64H124.296V54.712H127.336V55.312H124.296V57.4H127.496V58H123.656ZM130.475 58V52.04H131.035L134.531 57.056H134.315V52.04H134.955V58H134.395L130.899 52.952H131.115V58H130.475ZM141.006 58.096C140.584 58.096 140.198 58.0213 139.846 57.872C139.494 57.7173 139.187 57.504 138.926 57.232C138.67 56.9547 138.47 56.6293 138.326 56.256C138.182 55.8827 138.11 55.472 138.11 55.024C138.11 54.576 138.182 54.1653 138.326 53.792C138.47 53.4187 138.67 53.0933 138.926 52.816C139.187 52.5387 139.494 52.3253 139.846 52.176C140.198 52.0213 140.584 51.944 141.006 51.944C141.411 51.944 141.774 52.016 142.094 52.16C142.419 52.304 142.691 52.4907 142.91 52.72C143.134 52.944 143.294 53.1813 143.39 53.432L142.79 53.696C142.64 53.3493 142.411 53.072 142.102 52.864C141.798 52.6507 141.432 52.544 141.006 52.544C140.568 52.544 140.179 52.648 139.838 52.856C139.496 53.064 139.23 53.3547 139.038 53.728C138.846 54.096 138.75 54.528 138.75 55.024C138.75 55.5147 138.846 55.9467 139.038 56.32C139.23 56.6933 139.496 56.984 139.838 57.192C140.179 57.3947 140.568 57.496 141.006 57.496C141.432 57.496 141.798 57.392 142.102 57.184C142.411 56.976 142.64 56.6987 142.79 56.352L143.39 56.616C143.294 56.8613 143.134 57.0987 142.91 57.328C142.691 57.552 142.419 57.736 142.094 57.88C141.774 58.024 141.411 58.096 141.006 58.096ZM146.456 58V52.04H147.096V58H146.456ZM149.806 58L151.982 52.04H152.67L154.846 58H154.174L153.662 56.544H150.998L150.478 58H149.806ZM151.206 55.944H153.438L152.23 52.52H152.422L151.206 55.944Z" fill="black"/>
</svg>
