<svg width="274" height="104" viewBox="0 0 274 104" fill="none" xmlns="http://www.w3.org/2000/svg">
<path d="M23.808 80.704C21.4187 80.704 20.224 78.784 20.224 74.944C20.224 67.52 23.168 58.0053 29.056 46.4C32.0427 40.5973 35.4133 34.9227 39.168 29.376C42.9227 23.744 47.0187 18.3253 51.456 13.12V12.992C30.8053 14.6133 14.8053 19.5627 3.456 27.84C3.54133 27.7547 3.456 27.7973 3.2 27.968C3.02933 28.0533 2.85867 28.096 2.688 28.096C1.32267 28.096 0.64 27.0293 0.64 24.896C0.64 22.7627 2.38933 20.8427 5.888 19.136C20.48 12.1387 36.352 8.64 53.504 8.64C64.3413 8.64 72.832 10.2187 78.976 13.376C85.12 16.5333 88.192 20.9707 88.192 26.688C88.192 32.4053 84.0533 37.6107 75.776 42.304C67.6693 46.9973 59.3067 49.344 50.688 49.344C46.1653 49.344 41.472 48.4907 36.608 46.784C33.792 50.7947 31.0187 56.2987 28.288 63.296C25.472 70.2933 24.064 75.4133 24.064 78.656L24.32 80.192C24.32 80.5333 24.1493 80.704 23.808 80.704ZM44.032 45.76C46.2507 45.76 48.8107 45.5467 51.712 45.12C54.6133 44.608 57.9413 43.7547 61.696 42.56C64.9387 41.4507 68.0107 40.1707 70.912 38.72C73.8133 37.184 76.3307 35.6053 78.464 33.984C83.1573 30.4 85.504 26.9013 85.504 23.488C85.504 16.4907 74.88 12.992 53.632 12.992C55.8507 14.4427 56.96 15.2107 56.96 15.296C43.904 33.5573 37.376 43.456 37.376 44.992C38.0587 45.1627 38.9547 45.3333 40.064 45.504C41.2587 45.6747 42.5813 45.76 44.032 45.76ZM88.832 73.024C87.1253 73.024 85.5467 72.256 84.096 70.72C82.7307 69.0987 82.048 67.0507 82.048 64.576C82.048 62.1013 83.5413 58.2613 86.528 53.056C89.5147 47.936 93.184 43.328 97.536 39.232C101.803 35.2213 105.472 33.216 108.544 33.216H109.824C112.981 33.216 115.669 33.856 117.888 35.136C120.107 36.3307 121.216 37.952 121.216 40C121.216 40.9387 120.832 41.408 120.064 41.408C119.808 41.408 119.68 41.28 119.68 41.024C118.315 37.8667 116.224 36.288 113.408 36.288C108.544 36.288 102.997 40.2987 96.768 48.32C90.5387 56.1707 87.424 62.2293 87.424 66.496C87.424 68.1173 87.8507 68.928 88.704 68.928C92.544 68.928 100.608 60.2667 112.896 42.944C112.811 43.0293 112.853 43.0293 113.024 42.944C113.28 42.7733 113.493 42.688 113.664 42.688C114.091 42.688 114.987 43.1147 116.352 43.968C117.717 44.736 118.4 45.4187 118.4 46.016C118.4 46.016 118.229 46.3147 117.888 46.912C117.547 47.424 117.12 48.2347 116.608 49.344C115.243 52.2453 114.176 55.104 113.408 57.92C112.725 60.6507 112.384 63.04 112.384 65.088C112.384 69.6107 113.493 71.872 115.712 71.872L116.992 71.616L117.248 71.744C117.248 72.512 116.181 72.896 114.048 72.896C112 72.896 110.293 71.9573 108.928 70.08C107.648 68.1173 107.008 65.5147 107.008 62.272C107.008 59.1147 107.563 55.616 108.672 51.776C108.587 52.032 108.288 52.5013 107.776 53.184C107.264 53.8667 106.453 55.0613 105.344 56.768C98.3467 67.6053 92.8427 73.024 88.832 73.024ZM133.264 73.152C129.168 73.152 127.12 69.7387 127.12 62.912C127.12 58.56 128.485 51.392 131.216 41.408C133.947 31.3387 137.403 22.08 141.584 13.632C145.851 5.01333 149.605 0.703995 152.848 0.703995C154.725 0.703995 156.603 1.34399 158.48 2.62399C160.357 3.81866 161.296 5.14133 161.296 6.592C161.296 12.736 152.251 26.3893 134.16 47.552C133.477 50.7093 132.923 53.6533 132.496 56.384C132.155 59.1147 131.984 61.6747 131.984 64.064C131.984 68.7573 133.008 71.104 135.056 71.104L137.104 70.464C137.531 70.464 137.744 70.6773 137.744 71.104C137.744 72.4693 136.251 73.152 133.264 73.152ZM135.056 44.224C150.501 24.0853 158.224 11.4133 158.224 6.208C158.224 5.184 157.925 4.672 157.328 4.672C154.768 4.672 151.056 9.23733 146.192 18.368C141.328 27.4987 137.616 36.1173 135.056 44.224ZM156.544 73.152C152.448 73.152 150.4 69.7387 150.4 62.912C150.4 58.56 151.765 51.392 154.496 41.408C157.227 31.3387 160.683 22.08 164.864 13.632C169.131 5.01333 172.885 0.703995 176.128 0.703995C178.005 0.703995 179.883 1.34399 181.76 2.62399C183.637 3.81866 184.576 5.14133 184.576 6.592C184.576 12.736 175.531 26.3893 157.44 47.552C156.757 50.7093 156.203 53.6533 155.776 56.384C155.435 59.1147 155.264 61.6747 155.264 64.064C155.264 68.7573 156.288 71.104 158.336 71.104L160.384 70.464C160.811 70.464 161.024 70.6773 161.024 71.104C161.024 72.4693 159.531 73.152 156.544 73.152ZM158.336 44.224C173.781 24.0853 181.504 11.4133 181.504 6.208C181.504 5.184 181.205 4.672 180.608 4.672C178.048 4.672 174.336 9.23733 169.472 18.368C164.608 27.4987 160.896 36.1173 158.336 44.224ZM171.672 73.024C169.965 73.024 168.387 72.256 166.936 70.72C165.571 69.0987 164.888 67.0507 164.888 64.576C164.888 62.1013 166.381 58.2613 169.368 53.056C172.355 47.936 176.024 43.328 180.376 39.232C184.643 35.2213 188.312 33.216 191.384 33.216H192.664C195.821 33.216 198.509 33.856 200.728 35.136C202.947 36.3307 204.056 37.952 204.056 40C204.056 40.9387 203.672 41.408 202.904 41.408C202.648 41.408 202.52 41.28 202.52 41.024C201.155 37.8667 199.064 36.288 196.248 36.288C191.384 36.288 185.837 40.2987 179.608 48.32C173.379 56.1707 170.264 62.2293 170.264 66.496C170.264 68.1173 170.691 68.928 171.544 68.928C175.384 68.928 183.448 60.2667 195.736 42.944C195.651 43.0293 195.693 43.0293 195.864 42.944C196.12 42.7733 196.333 42.688 196.504 42.688C196.931 42.688 197.827 43.1147 199.192 43.968C200.557 44.736 201.24 45.4187 201.24 46.016C201.24 46.016 201.069 46.3147 200.728 46.912C200.387 47.424 199.96 48.2347 199.448 49.344C198.083 52.2453 197.016 55.104 196.248 57.92C195.565 60.6507 195.224 63.04 195.224 65.088C195.224 69.6107 196.333 71.872 198.552 71.872L199.832 71.616L200.088 71.744C200.088 72.512 199.021 72.896 196.888 72.896C194.84 72.896 193.133 71.9573 191.768 70.08C190.488 68.1173 189.848 65.5147 189.848 62.272C189.848 59.1147 190.403 55.616 191.512 51.776C191.427 52.032 191.128 52.5013 190.616 53.184C190.104 53.8667 189.293 55.0613 188.184 56.768C181.187 67.6053 175.683 73.024 171.672 73.024ZM216.39 73.408C209.137 73.408 205.51 70.0373 205.51 63.296C205.51 58.176 208.07 51.904 213.19 44.48C218.395 36.9707 223.387 33.216 228.166 33.216C229.873 33.216 231.622 33.856 233.414 35.136C235.291 36.3307 236.23 37.6533 236.23 39.104C236.23 43.1147 234.865 45.12 232.134 45.12C231.451 45.12 231.025 44.9067 230.854 44.48C231.878 42.0053 232.39 40.0427 232.39 38.592C232.39 37.2267 232.049 36.544 231.366 36.544C230.427 36.544 228.721 37.5253 226.246 39.488C224.113 41.1947 222.107 43.1573 220.23 45.376C218.438 47.5947 216.817 49.8987 215.366 52.288C212.294 57.4933 210.758 61.8453 210.758 65.344C210.758 68.7573 212.081 70.464 214.726 70.464C217.798 70.464 221.169 68.8853 224.838 65.728C226.033 64.6187 227.313 63.3813 228.678 62.016C230.043 60.5653 231.537 58.9867 233.158 57.28C236.315 53.8667 237.979 52.16 238.15 52.16C238.662 52.16 238.918 52.3733 238.918 52.8C238.918 53.1413 238.833 53.4827 238.662 53.824C229.702 66.88 222.278 73.408 216.39 73.408ZM248.67 73.408C241.417 73.408 237.79 70.0373 237.79 63.296C237.79 58.0907 240.35 51.776 245.47 44.352C250.761 36.928 255.795 33.216 260.574 33.216C262.622 33.216 264.414 33.8987 265.95 35.264C267.571 36.544 268.382 38.1227 268.382 40C268.382 43.1573 266.377 46.3573 262.366 49.6C258.441 52.7573 254.558 54.336 250.718 54.336C249.95 54.336 249.566 54.1653 249.566 53.824L249.95 53.184C259.763 50.112 264.67 45.0773 264.67 38.08C264.67 37.056 264.329 36.544 263.646 36.544C262.707 36.544 261.001 37.5253 258.526 39.488C256.393 41.1947 254.387 43.1573 252.51 45.376C250.718 47.5947 249.097 49.8987 247.646 52.288C244.574 57.4933 243.038 61.8453 243.038 65.344C243.038 68.7573 244.361 70.464 247.006 70.464C250.078 70.464 253.449 68.8853 257.118 65.728C258.313 64.6187 259.593 63.3813 260.958 62.016C262.323 60.5653 263.817 58.9867 265.438 57.28C268.595 53.8667 270.259 52.16 270.43 52.16C270.942 52.16 271.198 52.3733 271.198 52.8C271.198 53.1413 271.113 53.4827 270.942 53.824C261.982 66.88 254.558 73.408 248.67 73.408Z" fill="white"/>
<path d="M9.085 103.18C8.375 103.18 7.73 103.045 7.15 102.775C6.57 102.505 6.08 102.145 5.68 101.695C5.28 101.235 4.995 100.73 4.825 100.18L5.905 99.775C6.165 100.535 6.57 101.115 7.12 101.515C7.67 101.905 8.325 102.1 9.085 102.1C9.565 102.1 9.985 102.025 10.345 101.875C10.715 101.715 11 101.495 11.2 101.215C11.4 100.935 11.5 100.61 11.5 100.24C11.5 99.69 11.35 99.265 11.05 98.965C10.75 98.665 10.32 98.435 9.76 98.275L7.75 97.675C6.96 97.445 6.35 97.06 5.92 96.52C5.5 95.98 5.29 95.365 5.29 94.675C5.29 94.085 5.435 93.565 5.725 93.115C6.015 92.655 6.41 92.295 6.91 92.035C7.42 91.775 7.995 91.645 8.635 91.645C9.305 91.645 9.905 91.77 10.435 92.02C10.975 92.26 11.43 92.58 11.8 92.98C12.17 93.38 12.435 93.825 12.595 94.315L11.545 94.735C11.305 94.075 10.93 93.575 10.42 93.235C9.92 92.895 9.33 92.725 8.65 92.725C8.22 92.725 7.84 92.8 7.51 92.95C7.19 93.1 6.94 93.315 6.76 93.595C6.58 93.875 6.49 94.205 6.49 94.585C6.49 95.045 6.635 95.46 6.925 95.83C7.215 96.19 7.66 96.46 8.26 96.64L10.03 97.165C10.91 97.425 11.575 97.8 12.025 98.29C12.475 98.78 12.7 99.395 12.7 100.135C12.7 100.735 12.545 101.265 12.235 101.725C11.935 102.175 11.51 102.53 10.96 102.79C10.42 103.05 9.795 103.18 9.085 103.18ZM22.5473 103.18C21.7573 103.18 21.0623 103.015 20.4623 102.685C19.8623 102.355 19.3973 101.905 19.0673 101.335C18.7373 100.755 18.5723 100.095 18.5723 99.355V91.825H19.7723V99.355C19.7723 99.895 19.8873 100.37 20.1173 100.78C20.3573 101.18 20.6823 101.495 21.0923 101.725C21.5123 101.945 21.9973 102.055 22.5473 102.055C23.0973 102.055 23.5773 101.945 23.9873 101.725C24.4073 101.495 24.7323 101.18 24.9623 100.78C25.2023 100.37 25.3223 99.895 25.3223 99.355V91.825H26.5223V99.355C26.5223 100.095 26.3573 100.755 26.0273 101.335C25.6973 101.905 25.2323 102.355 24.6323 102.685C24.0423 103.015 23.3473 103.18 22.5473 103.18ZM31.2722 103L35.3522 91.825H36.6422L40.7222 103H39.4622L38.5022 100.27H33.5072L32.5322 103H31.2722ZM33.8972 99.145H38.0822L35.8172 92.725H36.1772L33.8972 99.145ZM51.9612 103V91.825H53.0112L57.2112 97.915H56.6262L60.8112 91.825H61.8612V103H60.6612V93.445L61.0512 93.595L56.9412 99.55H56.8812L52.7862 93.595L53.1612 93.445V103H51.9612ZM68.1003 103V91.825H75.3003V92.95H69.3003V96.835H75.0003V97.96H69.3003V101.875H75.3003V103H68.1003ZM80.8848 103V91.825H82.0848V101.875H87.0348V103H80.8848ZM92.4536 103V91.825H93.6536V96.85H99.6536V91.825H100.854V103H99.6536V97.975H93.6536V103H92.4536ZM112.364 103.18C111.584 103.18 110.854 103.04 110.174 102.76C109.504 102.47 108.914 102.07 108.404 101.56C107.894 101.04 107.494 100.43 107.204 99.73C106.914 99.02 106.769 98.245 106.769 97.405C106.769 96.565 106.914 95.795 107.204 95.095C107.494 94.385 107.894 93.775 108.404 93.265C108.914 92.745 109.504 92.345 110.174 92.065C110.854 91.785 111.584 91.645 112.364 91.645C113.144 91.645 113.869 91.79 114.539 92.08C115.219 92.36 115.814 92.76 116.324 93.28C116.834 93.79 117.234 94.395 117.524 95.095C117.814 95.795 117.959 96.565 117.959 97.405C117.959 98.245 117.814 99.02 117.524 99.73C117.234 100.43 116.834 101.04 116.324 101.56C115.814 102.07 115.219 102.47 114.539 102.76C113.869 103.04 113.144 103.18 112.364 103.18ZM112.364 102.055C113.014 102.055 113.604 101.935 114.134 101.695C114.674 101.455 115.139 101.12 115.529 100.69C115.919 100.26 116.219 99.765 116.429 99.205C116.649 98.645 116.759 98.045 116.759 97.405C116.759 96.775 116.649 96.18 116.429 95.62C116.219 95.06 115.919 94.565 115.529 94.135C115.139 93.705 114.674 93.37 114.134 93.13C113.604 92.89 113.014 92.77 112.364 92.77C111.714 92.77 111.119 92.89 110.579 93.13C110.049 93.37 109.589 93.705 109.199 94.135C108.809 94.565 108.504 95.06 108.284 95.62C108.074 96.18 107.969 96.775 107.969 97.405C107.969 98.045 108.074 98.645 108.284 99.205C108.504 99.765 108.809 100.26 109.199 100.69C109.589 101.12 110.054 101.455 110.594 101.695C111.134 101.935 111.724 102.055 112.364 102.055ZM123.867 103V91.825H127.707C128.437 91.825 129.077 91.97 129.627 92.26C130.177 92.54 130.602 92.94 130.902 93.46C131.212 93.97 131.367 94.565 131.367 95.245C131.367 96.035 131.157 96.71 130.737 97.27C130.327 97.83 129.767 98.225 129.057 98.455L131.667 103H130.257L127.527 98.185L128.337 98.65H125.067V103H123.867ZM125.067 97.525H127.767C128.247 97.525 128.667 97.435 129.027 97.255C129.387 97.065 129.667 96.8 129.867 96.46C130.067 96.11 130.167 95.7 130.167 95.23C130.167 94.76 130.067 94.355 129.867 94.015C129.667 93.675 129.387 93.415 129.027 93.235C128.667 93.045 128.247 92.95 127.767 92.95H125.067V97.525ZM143.226 103V91.825H150.426V92.95H144.426V96.835H150.126V97.96H144.426V101.875H150.426V103H143.226ZM154.855 103L158.485 97.3L154.975 91.825H156.325L159.37 96.595H158.965L161.995 91.825H163.345L159.835 97.3L163.48 103H162.13L158.965 98.02H159.37L156.175 103H154.855ZM168.56 103V91.825H172.4C173.13 91.825 173.77 91.97 174.32 92.26C174.87 92.54 175.295 92.94 175.595 93.46C175.905 93.97 176.06 94.565 176.06 95.245C176.06 95.925 175.905 96.52 175.595 97.03C175.295 97.54 174.87 97.94 174.32 98.23C173.78 98.51 173.14 98.65 172.4 98.65H169.76V103H168.56ZM169.76 97.525H172.46C172.94 97.525 173.36 97.435 173.72 97.255C174.08 97.065 174.36 96.8 174.56 96.46C174.76 96.11 174.86 95.7 174.86 95.23C174.86 94.76 174.76 94.355 174.56 94.015C174.36 93.675 174.08 93.415 173.72 93.235C173.36 93.045 172.94 92.95 172.46 92.95H169.76V97.525ZM181.799 103V91.825H188.999V92.95H182.999V96.835H188.699V97.96H182.999V101.875H188.999V103H181.799ZM194.584 103V91.825H198.424C199.154 91.825 199.794 91.97 200.344 92.26C200.894 92.54 201.319 92.94 201.619 93.46C201.929 93.97 202.084 94.565 202.084 95.245C202.084 96.035 201.874 96.71 201.454 97.27C201.044 97.83 200.484 98.225 199.774 98.455L202.384 103H200.974L198.244 98.185L199.054 98.65H195.784V103H194.584ZM195.784 97.525H198.484C198.964 97.525 199.384 97.435 199.744 97.255C200.104 97.065 200.384 96.8 200.584 96.46C200.784 96.11 200.884 95.7 200.884 95.23C200.884 94.76 200.784 94.355 200.584 94.015C200.384 93.675 200.104 93.415 199.744 93.235C199.384 93.045 198.964 92.95 198.484 92.95H195.784V97.525ZM207.793 103V91.825H208.993V103H207.793ZM215.231 103V91.825H222.431V92.95H216.431V96.835H222.131V97.96H216.431V101.875H222.431V103H215.231ZM228.016 103V91.825H229.066L235.621 101.23H235.216V91.825H236.416V103H235.366L228.811 93.535H229.216V103H228.016ZM247.76 103.18C246.97 103.18 246.245 103.04 245.585 102.76C244.925 102.47 244.35 102.07 243.86 101.56C243.38 101.04 243.005 100.43 242.735 99.73C242.465 99.03 242.33 98.26 242.33 97.42C242.33 96.58 242.465 95.81 242.735 95.11C243.005 94.41 243.38 93.8 243.86 93.28C244.35 92.76 244.925 92.36 245.585 92.08C246.245 91.79 246.97 91.645 247.76 91.645C248.52 91.645 249.2 91.78 249.8 92.05C250.41 92.32 250.92 92.67 251.33 93.1C251.75 93.52 252.05 93.965 252.23 94.435L251.105 94.93C250.825 94.28 250.395 93.76 249.815 93.37C249.245 92.97 248.56 92.77 247.76 92.77C246.94 92.77 246.21 92.965 245.57 93.355C244.93 93.745 244.43 94.29 244.07 94.99C243.71 95.68 243.53 96.49 243.53 97.42C243.53 98.34 243.71 99.15 244.07 99.85C244.43 100.55 244.93 101.095 245.57 101.485C246.21 101.865 246.94 102.055 247.76 102.055C248.56 102.055 249.245 101.86 249.815 101.47C250.395 101.08 250.825 100.56 251.105 99.91L252.23 100.405C252.05 100.865 251.75 101.31 251.33 101.74C250.92 102.16 250.41 102.505 249.8 102.775C249.2 103.045 248.52 103.18 247.76 103.18ZM257.979 103V91.825H259.179V103H257.979ZM264.262 103L268.342 91.825H269.632L273.712 103H272.452L271.492 100.27H266.497L265.522 103H264.262ZM266.887 99.145H271.072L268.807 92.725H269.167L266.887 99.145Z" fill="white"/>
</svg>
